# xmcd CD database file generated by Grip 2.95
# 
# Track frame offsets:
#       150
#       12219
#       21944
#       35633
#       49333
#       60422
#       72554
#       84501
#       94435
#       103717
#       112939
#       123281
#       134629
#       146032
#       159685
#       168894
#       181356
#       197145
#       209875
#       221789
#       238068
#       250040
#       273024
#       284995
#       297305
#       309589
# 
# Disc length: 4205 seconds
# 
# Revision: 3
# Processed by: cddbd v1.4b42PL0 Copyright (c) Steve Scherf et al.
# Submitted via: Grip 2.95
# 
DISCID=9d106b1a
DTITLE=The Beatles - Revolver
DYEAR=1900
DGENRE=
TTITLE0=Taxman
TTITLE1=Eleanor Rigby
TTITLE2=I'm Only Sleeping
TTITLE3=Love You To
TTITLE4=Here, There And Everywhere
TTITLE5=Yellow Submarine
TTITLE6=She Said She Said
TTITLE7=Good Day Sunshine
TTITLE8=And Your Bird Can Sing
TTITLE9=For No One
TTITLE10=Doctor Robert
TTITLE11=I Want To Tell You
TTITLE12=Got To Get You Into My Life
TTITLE13=Tomorrow Never Knows
TTITLE14=(14)
TTITLE15=(15)
TTITLE16=(16)
TTITLE17=(17)
TTITLE18=(18)
TTITLE19=(19)
TTITLE20=(20)
TTITLE21=(21)
TTITLE22=(22)
TTITLE23=(23)
TTITLE24=(24)
TTITLE25=(25)
EXTD=
EXTT0=
EXTT1=
EXTT2=
EXTT3=
EXTT4=
EXTT5=
EXTT6=
EXTT7=
EXTT8=
EXTT9=
EXTT10=
EXTT11=
EXTT12=
EXTT13=
EXTT14=
EXTT15=
EXTT16=
EXTT17=
EXTT18=
EXTT19=
EXTT20=
EXTT21=
EXTT22=
EXTT23=
EXTT24=
EXTT25=
PLAYORDER=
